# xmcd
#
# Track frame offsets: 
#        150
#        14248
#        25678
#        36708
#        49839
#        62956
#        78746
#        92201
#        105269
#        118805
#        131176
#
# Disc length: 1943 seconds
#
# Revision: 0
# Processed by: cddbd v1.5.2PL0 Copyright (c) Steve Scherf et al.
# Submitted via: ExactAudioCopy v0.99pb4
#
DISCID=a107950b
DTITLE=Hellbound Glory - Scumbag Country
DYEAR=2008
DGENRE=Country
TTITLE0=Hellbound Glory
TTITLE1=Livin' This Way
TTITLE2=Hello Five-0
TTITLE3=Chico's Train
TTITLE4=The Ballad Of Scumbag Country
TTITLE5=Drive In Harm's Lane
TTITLE6=I'll Be Your Rock (At Rock Bottom)
TTITLE7=Get Your Shit And Go
TTITLE8=Mickey Meth (Downtown)
TTITLE9=Can't Say I'll Change
TTITLE10=Waylon Never Done It Their Way
EXTD=
EXTT0=
EXTT1=
EXTT2=
EXTT3=
EXTT4=
EXTT5=
EXTT6=
EXTT7=
EXTT8=
EXTT9=
EXTT10=
PLAYORDER=
